<svg width="21" height="20" viewBox="0 0 21 20" fill="none"
    xmlns="http://www.w3.org/2000/svg">
    <path d="M10.5108 6.66525C8.67456 6.66525 7.17605 8.16376 7.17605 10C7.17605 11.8362 8.67456 13.3348 10.5108 13.3348C12.347 13.3348 13.8456 11.8362 13.8456 10C13.8456 8.16376 12.347 6.66525 10.5108 6.66525ZM20.5126 10C20.5126 8.61907 20.5251 7.25064 20.4475 5.87221C20.37 4.27113 20.0047 2.85017 18.8339 1.67938C17.6606 0.506085 16.2422 0.14334 14.6411 0.065788C13.2602 -0.0117644 11.8917 0.000744113 10.5133 0.000744113C9.13237 0.000744113 7.76395 -0.0117644 6.38552 0.065788C4.78444 0.14334 3.36348 0.508587 2.19268 1.67938C1.01939 2.85267 0.656646 4.27113 0.579094 5.87221C0.501541 7.25314 0.51405 8.62157 0.51405 10C0.51405 11.3784 0.501541 12.7494 0.579094 14.1278C0.656646 15.7289 1.02189 17.1498 2.19268 18.3206C3.36598 19.4939 4.78444 19.8567 6.38552 19.9342C7.76645 20.0118 9.13487 19.9993 10.5133 19.9993C11.8942 19.9993 13.2627 20.0118 14.6411 19.9342C16.2422 19.8567 17.6631 19.4914 18.8339 18.3206C20.0072 17.1473 20.37 15.7289 20.4475 14.1278C20.5276 12.7494 20.5126 11.3809 20.5126 10ZM10.5108 15.131C7.67139 15.131 5.37984 12.8394 5.37984 10C5.37984 7.16058 7.67139 4.86903 10.5108 4.86903C13.3502 4.86903 15.6418 7.16058 15.6418 10C15.6418 12.8394 13.3502 15.131 10.5108 15.131ZM15.8519 5.8572C15.189 5.8572 14.6536 5.32184 14.6536 4.65889C14.6536 3.99594 15.189 3.46058 15.8519 3.46058C16.5149 3.46058 17.0502 3.99594 17.0502 4.65889C17.0504 4.81631 17.0196 4.97222 16.9594 5.1177C16.8993 5.26317 16.811 5.39535 16.6997 5.50666C16.5884 5.61798 16.4562 5.70624 16.3107 5.76639C16.1652 5.82654 16.0093 5.8574 15.8519 5.8572Z" fill="#2E2A2B"/>
</svg>
